<svg xmlns="http://www.w3.org/2000/svg" fill="#fff" enable-background="new 512 512 512 512" shape-rendering="geometricPrecision" text-rendering="geometricPrecision" image-rendering="optimizeQuality" fill-rule="evenodd" clip-rule="evenodd" viewBox="0 0 512 141.45"><path d="M68.53 68.83c2.48-2.99 5.02-5.67 7.58-8 9.14-8.32 19.05-12.77 29.32-12.98 10.23-.21 20.72 3.78 31.04 12.29 3.07 2.53 6.12 5.45 9.11 8.72.88.98.91 2.45.11 3.45-3.28 4.61-6.94 8.48-10.81 11.58-8.07 6.44-17.23 9.64-26.5 9.7-9.23.07-18.57-2.96-27.06-8.96-4.6-3.25-8.97-7.37-12.93-12.34-.82-1.04-.74-2.52.14-3.46zm363.36 23.4c-4.69 0-8.26-1.34-10.73-4-2.47-2.67-3.7-6.34-3.7-11.05 0-2.81.58-5.33 1.72-7.55 1.15-2.22 2.8-3.97 4.97-5.26 2.16-1.29 4.77-1.93 7.84-1.93 1.55 0 3.04.17 4.48.53 1.44.36 2.74.97 3.88 1.85 1.15.88 2.07 2.08 2.76 3.61.7 1.53 1.05 3.46 1.07 5.78 0 1.04-.03 2.03-.09 2.97-.06.94-.14 1.72-.22 2.34h-17.03c-.25-1.48-.19-3.86.05-4.68h8.54c.09-1.41.03-2.59-.19-3.53-.22-.95-.61-1.65-1.17-2.12-.57-.47-1.33-.71-2.29-.71-1.09 0-2.01.3-2.76.9-.76.6-1.33 1.63-1.71 3.09-.68 2.56-.94 7.75.4 10.13a5.114 5.114 0 0 0 2.49 2.26c1.07.47 2.37.7 3.88.7.93 0 1.91-.06 2.94-.2 1.02-.14 1.98-.33 2.85-.55.88-.23 1.55-.46 2.02-.7l1.46 5c-.65.52-1.53 1.01-2.67 1.49s-2.45.87-3.96 1.17c-1.5.31-3.11.46-4.83.46zm-246.61-.31-14.06-38.8h10.31l6.2 19.53 1.93 7.55 1.92-7.55 5.78-19.53h10.31l-13.95 38.8h-8.44zm26.4-.11v-29h9.42v29h-9.42zm4.27-32.49c-1.51 0-2.75-.46-3.73-1.37-.98-.91-1.48-2.07-1.48-3.47 0-.96.26-1.83.78-2.63.52-.8 1.22-1.45 2.08-1.92.86-.48 1.79-.71 2.82-.71 1.54 0 2.79.44 3.74 1.33.94.9 1.41 2.07 1.41 3.51 0 1.42-.54 2.65-1.63 3.69-1.1 1.05-2.43 1.57-3.99 1.57zm25.16 32.91c-4.69 0-8.26-1.34-10.73-4-2.47-2.67-3.7-6.34-3.7-11.05 0-2.81.58-5.33 1.72-7.55 1.15-2.22 2.8-3.97 4.96-5.26 2.17-1.29 4.78-1.93 7.85-1.93 1.55 0 3.04.17 4.48.53 1.44.36 2.74.97 3.88 1.85 1.15.88 2.07 2.08 2.76 3.61.69 1.53 1.05 3.46 1.07 5.78 0 1.04-.03 2.03-.09 2.97-.06.94-.14 1.72-.22 2.34h-17.03c-.14-1.57-.14-3.14.05-4.68h8.54c.09-1.41.02-2.59-.19-3.53-.22-.95-.61-1.65-1.17-2.12-.57-.47-1.33-.71-2.29-.71-1.09 0-2.01.3-2.76.9-.76.6-1.33 1.63-1.72 3.09-.67 2.56-.93 7.75.41 10.13a5.114 5.114 0 0 0 2.49 2.26c1.07.47 2.37.7 3.88.7.93 0 1.91-.06 2.94-.2 1.02-.14 1.98-.33 2.85-.55.88-.23 1.55-.46 2.02-.7l1.46 5c-.65.52-1.53 1.01-2.67 1.49s-2.45.87-3.96 1.17c-1.5.31-3.11.46-4.83.46zm22.61 0-8.7-29.42h9.17l2.65 11.71 1.54 7.7 1.8-7.7 3.43-11.71h8.44l3.44 11.71 1.63 7.56 1.54-7.56 2.76-11.71h8.75l-9.16 29.42h-8.23l-4.22-14.27-1.07-6.86-1.17 6.86-4.06 14.27h-8.54zm46.52-.42 4.48-38.69h13.07l4.68 19.84 1.77 9.06 1.41-9.06 4.17-19.84h12.65l4.79 38.69h-9.32l-1.61-20.36-.58-11.14-2.39 11.45-5.21 20.26h-8.59l-5.63-20.26-2.55-11.45-.68 11.14-1.51 20.36h-8.95zm64.83.42c-2.67 0-4.94-.42-6.8-1.24-1.87-.83-3.37-1.95-4.5-3.39-1.13-1.44-1.94-3.1-2.45-4.97-.5-1.87-.74-3.83-.72-5.92.05-3.09.72-5.69 2-7.81 1.29-2.12 3.05-3.72 5.29-4.82 2.23-1.09 4.8-1.64 7.7-1.64 3.58 0 6.43.72 8.56 2.14 2.13 1.42 3.65 3.3 4.57 5.65.92 2.34 1.35 4.9 1.3 7.68-.04 3.11-.69 5.72-1.96 7.84-1.28 2.13-3.04 3.75-5.28 4.84-2.24 1.1-4.81 1.64-7.71 1.64zm.21-6.51c1.86 0 3.15-.69 3.87-2.05.72-1.36 1.08-3.42 1.08-6.18 0-1.56-.15-2.99-.44-4.28-.3-1.3-.79-2.33-1.49-3.1-.69-.78-1.65-1.16-2.86-1.16-1.89 0-3.2.69-3.94 2.06-.74 1.37-1.12 3.38-1.12 6.02 0 1.59.16 3.05.47 4.37.3 1.32.8 2.37 1.51 3.15.72.78 1.69 1.17 2.92 1.17zm28.49-18.25c.36-.88.9-1.68 1.6-2.4.83-.83 1.82-1.49 2.97-1.97 1.16-.47 2.41-.71 3.76-.71.42 0 .83.03 1.25.08.42.05.71.13.89.23v9.32c-.23-.15-.59-.32-1.07-.48-.49-.17-1.17-.25-2.06-.25-1.39 0-2.55.21-3.5.61-.94.41-1.71.89-2.29 1.43l-.77.75v17.73h-9.43v-29h8.23l.42 4.66zM70.72 0h370.56c19.44 0 37.13 7.96 49.94 20.77l.29.32C504.16 33.89 512 51.45 512 70.72c0 19.41-7.97 37.09-20.79 49.92l-.03.03c-12.83 12.82-30.5 20.78-49.9 20.78H70.72c-19.44 0-37.13-7.96-49.95-20.78C7.96 107.86 0 90.17 0 70.72c0-19.45 7.96-37.14 20.77-49.95C33.58 7.96 51.27 0 70.72 0zm370.56 10.04H70.72c-16.68 0-31.85 6.83-42.85 17.83-11 11-17.83 26.17-17.83 42.85s6.83 31.85 17.84 42.85c11 11 26.18 17.84 42.84 17.84h370.56c16.67 0 31.85-6.83 42.83-17.83 11.02-11.01 17.85-26.18 17.85-42.86 0-16.54-6.72-31.61-17.57-42.59l-.27-.25c-11-11-26.17-17.84-42.84-17.84zM107.04 61.06c2.67 0 5.09 1.08 6.83 2.83a9.646 9.646 0 0 1 0 13.67 9.644 9.644 0 0 1-6.83 2.83 9.68 9.68 0 0 1-6.83-2.83 9.643 9.643 0 0 1-2.83-6.84c0-2.66 1.08-5.07 2.83-6.82a9.622 9.622 0 0 1 6.83-2.84zm0-6.08c4.34 0 8.28 1.77 11.13 4.61 2.85 2.85 4.61 6.79 4.61 11.13 0 4.34-1.76 8.28-4.61 11.13a15.707 15.707 0 0 1-22.25 0 15.666 15.666 0 0 1-4.62-11.13c0-4.33 1.76-8.26 4.61-11.12 2.87-2.86 6.8-4.62 11.13-4.62z"/></svg>